<mxfile host="app.diagrams.net" modified="2023-12-14T12:58:03.138Z" agent="Mozilla/5.0 (Windows NT 10.0; Win64; x64) AppleWebKit/537.36 (KHTML, like Gecko) Chrome/120.0.0.0 Safari/537.36" etag="QVOwZuxLk_7qi7RWUcti" version="22.1.8" type="device">
  <diagram name="PÃ¡gina-1" id="8qIAGLaSQ-IMYFgypan-">
    <mxGraphModel dx="1434" dy="-431" grid="1" gridSize="10" guides="1" tooltips="1" connect="1" arrows="1" fold="1" page="1" pageScale="1" pageWidth="827" pageHeight="1169" math="0" shadow="0">
      <root>
        <mxCell id="0" />
        <mxCell id="1" parent="0" />
        <mxCell id="YzwFTOW2Nqn99mvJIHWq-1" value="&lt;p style=&quot;margin:0px;margin-top:4px;text-align:center;&quot;&gt;&lt;b&gt;Utilizador&lt;/b&gt;&lt;/p&gt;&lt;hr size=&quot;1&quot;&gt;&lt;p style=&quot;margin:0px;margin-left:4px;&quot;&gt;- Nome: String&lt;/p&gt;&lt;p style=&quot;margin:0px;margin-left:4px;&quot;&gt;- DataNascimento: Date&lt;/p&gt;&lt;hr size=&quot;1&quot;&gt;&lt;p style=&quot;margin:0px;margin-left:4px;&quot;&gt;+ method(): Type&lt;/p&gt;" style="verticalAlign=top;align=left;overflow=fill;fontSize=12;fontFamily=Helvetica;html=1;whiteSpace=wrap;" vertex="1" parent="1">
          <mxGeometry x="210" y="2075" width="160" height="90" as="geometry" />
        </mxCell>
        <mxCell id="YzwFTOW2Nqn99mvJIHWq-2" value="&lt;p style=&quot;margin:0px;margin-top:4px;text-align:center;&quot;&gt;&lt;b&gt;Produtos&lt;/b&gt;&lt;/p&gt;&lt;hr size=&quot;1&quot;&gt;&lt;p style=&quot;margin:0px;margin-left:4px;&quot;&gt;- codProduto: int&lt;/p&gt;&lt;p style=&quot;margin:0px;margin-left:4px;&quot;&gt;- nome: string&lt;/p&gt;&lt;p style=&quot;margin:0px;margin-left:4px;&quot;&gt;- descricao: string&lt;/p&gt;&lt;p style=&quot;margin:0px;margin-left:4px;&quot;&gt;- preco: float&lt;/p&gt;&lt;hr size=&quot;1&quot;&gt;&lt;p style=&quot;margin:0px;margin-left:4px;&quot;&gt;+ method(): Type&lt;/p&gt;" style="verticalAlign=top;align=left;overflow=fill;fontSize=12;fontFamily=Helvetica;html=1;whiteSpace=wrap;" vertex="1" parent="1">
          <mxGeometry x="600" y="2060" width="160" height="120" as="geometry" />
        </mxCell>
        <mxCell id="YzwFTOW2Nqn99mvJIHWq-3" value="&lt;p style=&quot;margin:0px;margin-top:4px;text-align:center;&quot;&gt;&lt;b&gt;Checkout&lt;/b&gt;&lt;/p&gt;&lt;hr size=&quot;1&quot;&gt;&lt;p style=&quot;margin:0px;margin-left:4px;&quot;&gt;- : Type&lt;/p&gt;&lt;hr size=&quot;1&quot;&gt;&lt;p style=&quot;margin:0px;margin-left:4px;&quot;&gt;+ method(): Type&lt;/p&gt;" style="verticalAlign=top;align=left;overflow=fill;fontSize=12;fontFamily=Helvetica;html=1;whiteSpace=wrap;" vertex="1" parent="1">
          <mxGeometry x="411" y="2340" width="160" height="90" as="geometry" />
        </mxCell>
        <mxCell id="YzwFTOW2Nqn99mvJIHWq-4" value="&lt;p style=&quot;margin:0px;margin-top:4px;text-align:center;&quot;&gt;&lt;b&gt;Pagamento&lt;/b&gt;&lt;/p&gt;&lt;hr size=&quot;1&quot;&gt;&lt;p style=&quot;margin:0px;margin-left:4px;&quot;&gt;- valorTotal: float&lt;/p&gt;&lt;hr size=&quot;1&quot;&gt;&lt;p style=&quot;margin:0px;margin-left:4px;&quot;&gt;+ method(): Type&lt;/p&gt;" style="verticalAlign=top;align=left;overflow=fill;fontSize=12;fontFamily=Helvetica;html=1;whiteSpace=wrap;" vertex="1" parent="1">
          <mxGeometry x="680" y="2340" width="160" height="90" as="geometry" />
        </mxCell>
        <mxCell id="YzwFTOW2Nqn99mvJIHWq-5" value="&lt;p style=&quot;margin:0px;margin-top:4px;text-align:center;&quot;&gt;&lt;b&gt;MBWAY&lt;/b&gt;&lt;/p&gt;&lt;hr size=&quot;1&quot;&gt;&lt;p style=&quot;margin:0px;margin-left:4px;&quot;&gt;- telemovel: string&lt;/p&gt;&lt;hr size=&quot;1&quot;&gt;&lt;p style=&quot;margin:0px;margin-left:4px;&quot;&gt;+ method(): Type&lt;/p&gt;" style="verticalAlign=top;align=left;overflow=fill;fontSize=12;fontFamily=Helvetica;html=1;whiteSpace=wrap;" vertex="1" parent="1">
          <mxGeometry x="1000" y="2139" width="160" height="90" as="geometry" />
        </mxCell>
        <mxCell id="YzwFTOW2Nqn99mvJIHWq-6" value="&lt;p style=&quot;margin:0px;margin-top:4px;text-align:center;&quot;&gt;&lt;b&gt;Log in&lt;/b&gt;&lt;/p&gt;&lt;hr size=&quot;1&quot;&gt;&lt;p style=&quot;margin:0px;margin-left:4px;&quot;&gt;+ field: Type&lt;/p&gt;&lt;hr size=&quot;1&quot;&gt;&lt;p style=&quot;margin:0px;margin-left:4px;&quot;&gt;+ method(): Type&lt;/p&gt;" style="verticalAlign=top;align=left;overflow=fill;fontSize=12;fontFamily=Helvetica;html=1;whiteSpace=wrap;" vertex="1" parent="1">
          <mxGeometry x="371" y="2490" width="160" height="90" as="geometry" />
        </mxCell>
        <mxCell id="YzwFTOW2Nqn99mvJIHWq-7" value="&lt;p style=&quot;margin:0px;margin-top:4px;text-align:center;&quot;&gt;&lt;b&gt;Carrinho&lt;/b&gt;&lt;/p&gt;&lt;hr size=&quot;1&quot;&gt;&lt;p style=&quot;margin:0px;margin-left:4px;&quot;&gt;- quantidade: int&lt;/p&gt;&lt;hr size=&quot;1&quot;&gt;&lt;p style=&quot;margin:0px;margin-left:4px;&quot;&gt;+ adicionarProdutos(): int&lt;/p&gt;" style="verticalAlign=top;align=left;overflow=fill;fontSize=12;fontFamily=Helvetica;html=1;whiteSpace=wrap;" vertex="1" parent="1">
          <mxGeometry x="411" y="2170" width="160" height="90" as="geometry" />
        </mxCell>
        <mxCell id="YzwFTOW2Nqn99mvJIHWq-8" value="&lt;p style=&quot;margin:0px;margin-top:4px;text-align:center;&quot;&gt;&lt;b&gt;Cobranca&lt;/b&gt;&lt;/p&gt;&lt;hr size=&quot;1&quot;&gt;&lt;p style=&quot;margin:0px;margin-left:4px;&quot;&gt;- quantidadeRecebida: float&lt;/p&gt;&lt;p style=&quot;margin:0px;margin-left:4px;&quot;&gt;- troco: float&lt;/p&gt;&lt;hr size=&quot;1&quot;&gt;&lt;p style=&quot;margin:0px;margin-left:4px;&quot;&gt;+ calcularTroco(): float&lt;/p&gt;" style="verticalAlign=top;align=left;overflow=fill;fontSize=12;fontFamily=Helvetica;html=1;whiteSpace=wrap;" vertex="1" parent="1">
          <mxGeometry x="1000" y="2240" width="160" height="90" as="geometry" />
        </mxCell>
        <mxCell id="YzwFTOW2Nqn99mvJIHWq-9" value="&lt;p style=&quot;margin:0px;margin-top:4px;text-align:center;&quot;&gt;&lt;b&gt;CartaoCredito&lt;/b&gt;&lt;/p&gt;&lt;hr size=&quot;1&quot;&gt;&lt;p style=&quot;margin:0px;margin-left:4px;&quot;&gt;-numeroCartao: int&lt;/p&gt;&lt;p style=&quot;margin:0px;margin-left:4px;&quot;&gt;-nomeTitular:string&lt;/p&gt;&lt;p style=&quot;margin:0px;margin-left:4px;&quot;&gt;-ccv: int&lt;/p&gt;&lt;hr size=&quot;1&quot;&gt;&lt;p style=&quot;margin:0px;margin-left:4px;&quot;&gt;+ method(): Type&lt;/p&gt;" style="verticalAlign=top;align=left;overflow=fill;fontSize=12;fontFamily=Helvetica;html=1;whiteSpace=wrap;" vertex="1" parent="1">
          <mxGeometry x="1000" y="2340" width="160" height="110" as="geometry" />
        </mxCell>
        <mxCell id="YzwFTOW2Nqn99mvJIHWq-10" value="" style="endArrow=block;endSize=16;endFill=0;html=1;rounded=0;edgeStyle=orthogonalEdgeStyle;exitX=0;exitY=0.5;exitDx=0;exitDy=0;entryX=1;entryY=0.5;entryDx=0;entryDy=0;" edge="1" parent="1" source="YzwFTOW2Nqn99mvJIHWq-8" target="YzwFTOW2Nqn99mvJIHWq-4">
          <mxGeometry width="160" relative="1" as="geometry">
            <mxPoint x="1010" y="2428" as="sourcePoint" />
            <mxPoint x="810" y="2330" as="targetPoint" />
          </mxGeometry>
        </mxCell>
        <mxCell id="YzwFTOW2Nqn99mvJIHWq-11" value="" style="endArrow=block;endSize=16;endFill=0;html=1;rounded=0;edgeStyle=orthogonalEdgeStyle;exitX=-0.012;exitY=0.4;exitDx=0;exitDy=0;exitPerimeter=0;entryX=1;entryY=0;entryDx=0;entryDy=0;" edge="1" parent="1" source="YzwFTOW2Nqn99mvJIHWq-5" target="YzwFTOW2Nqn99mvJIHWq-4">
          <mxGeometry width="160" relative="1" as="geometry">
            <mxPoint x="1020" y="2315" as="sourcePoint" />
            <mxPoint x="890" y="2285" as="targetPoint" />
          </mxGeometry>
        </mxCell>
        <mxCell id="YzwFTOW2Nqn99mvJIHWq-12" value="" style="endArrow=none;endFill=0;html=1;edgeStyle=orthogonalEdgeStyle;align=left;verticalAlign=top;rounded=0;exitX=1;exitY=0.5;exitDx=0;exitDy=0;entryX=0;entryY=0.5;entryDx=0;entryDy=0;" edge="1" parent="1" source="YzwFTOW2Nqn99mvJIHWq-1" target="YzwFTOW2Nqn99mvJIHWq-2">
          <mxGeometry x="-1" relative="1" as="geometry">
            <mxPoint x="420" y="2024.5" as="sourcePoint" />
            <mxPoint x="629" y="2025" as="targetPoint" />
          </mxGeometry>
        </mxCell>
        <mxCell id="YzwFTOW2Nqn99mvJIHWq-13" value="" style="endArrow=none;html=1;endSize=12;startArrow=diamondThin;startSize=14;startFill=1;edgeStyle=orthogonalEdgeStyle;align=left;verticalAlign=bottom;rounded=0;exitX=1;exitY=0.5;exitDx=0;exitDy=0;entryX=0;entryY=0.5;entryDx=0;entryDy=0;endFill=0;" edge="1" parent="1" source="YzwFTOW2Nqn99mvJIHWq-3" target="YzwFTOW2Nqn99mvJIHWq-4">
          <mxGeometry x="-1" y="3" relative="1" as="geometry">
            <mxPoint x="650" y="2520" as="sourcePoint" />
            <mxPoint x="810" y="2520" as="targetPoint" />
          </mxGeometry>
        </mxCell>
        <mxCell id="YzwFTOW2Nqn99mvJIHWq-14" value="" style="endArrow=none;html=1;endSize=12;startArrow=diamondThin;startSize=14;startFill=1;align=left;verticalAlign=bottom;rounded=0;exitX=0.5;exitY=0;exitDx=0;exitDy=0;edgeStyle=orthogonalEdgeStyle;entryX=0.25;entryY=1;entryDx=0;entryDy=0;endFill=0;" edge="1" parent="1" source="YzwFTOW2Nqn99mvJIHWq-6" target="YzwFTOW2Nqn99mvJIHWq-3">
          <mxGeometry x="-1" y="3" relative="1" as="geometry">
            <mxPoint x="650" y="2320" as="sourcePoint" />
            <mxPoint x="418" y="2370" as="targetPoint" />
          </mxGeometry>
        </mxCell>
        <mxCell id="YzwFTOW2Nqn99mvJIHWq-15" value="" style="endArrow=none;html=1;endSize=12;startArrow=diamondThin;startSize=14;startFill=1;align=left;verticalAlign=bottom;rounded=0;exitX=0.5;exitY=1;exitDx=0;exitDy=0;edgeStyle=orthogonalEdgeStyle;entryX=0.5;entryY=0;entryDx=0;entryDy=0;endFill=0;" edge="1" parent="1" source="YzwFTOW2Nqn99mvJIHWq-7" target="YzwFTOW2Nqn99mvJIHWq-3">
          <mxGeometry x="-1" y="3" relative="1" as="geometry">
            <mxPoint x="470" y="2420" as="sourcePoint" />
            <mxPoint x="310" y="2510" as="targetPoint" />
          </mxGeometry>
        </mxCell>
        <mxCell id="YzwFTOW2Nqn99mvJIHWq-16" value="0..*" style="text;html=1;align=center;verticalAlign=middle;resizable=0;points=[];autosize=1;strokeColor=none;fillColor=none;" vertex="1" parent="1">
          <mxGeometry x="374" y="2080" width="40" height="30" as="geometry" />
        </mxCell>
        <mxCell id="YzwFTOW2Nqn99mvJIHWq-17" value="0..*" style="text;html=1;align=center;verticalAlign=middle;resizable=0;points=[];autosize=1;strokeColor=none;fillColor=none;" vertex="1" parent="1">
          <mxGeometry x="560" y="2080" width="40" height="30" as="geometry" />
        </mxCell>
        <mxCell id="YzwFTOW2Nqn99mvJIHWq-18" value="&lt;p style=&quot;margin:0px;margin-top:4px;text-align:center;&quot;&gt;&lt;b&gt;ValeEducacao&lt;/b&gt;&lt;/p&gt;&lt;hr size=&quot;1&quot;&gt;&lt;p style=&quot;margin:0px;margin-left:4px;&quot;&gt;- valor: float&lt;/p&gt;&lt;hr size=&quot;1&quot;&gt;&lt;p style=&quot;margin:0px;margin-left:4px;&quot;&gt;+ method(): Type&lt;/p&gt;" style="verticalAlign=top;align=left;overflow=fill;fontSize=12;fontFamily=Helvetica;html=1;whiteSpace=wrap;" vertex="1" parent="1">
          <mxGeometry x="1000" y="2470" width="160" height="90" as="geometry" />
        </mxCell>
        <mxCell id="YzwFTOW2Nqn99mvJIHWq-19" value="" style="endArrow=block;endSize=16;endFill=0;html=1;rounded=0;edgeStyle=orthogonalEdgeStyle;exitX=0;exitY=0.25;exitDx=0;exitDy=0;entryX=0.75;entryY=1;entryDx=0;entryDy=0;" edge="1" parent="1" source="YzwFTOW2Nqn99mvJIHWq-18" target="YzwFTOW2Nqn99mvJIHWq-4">
          <mxGeometry width="160" relative="1" as="geometry">
            <mxPoint x="1010" y="2428" as="sourcePoint" />
            <mxPoint x="810" y="2330" as="targetPoint" />
          </mxGeometry>
        </mxCell>
        <mxCell id="YzwFTOW2Nqn99mvJIHWq-20" value="&lt;p style=&quot;margin:0px;margin-top:4px;text-align:center;&quot;&gt;&lt;b&gt;ValeDesconto&lt;/b&gt;&lt;/p&gt;&lt;hr size=&quot;1&quot;&gt;&lt;p style=&quot;margin:0px;margin-left:4px;&quot;&gt;- valor: float&lt;/p&gt;&lt;hr size=&quot;1&quot;&gt;&lt;p style=&quot;margin:0px;margin-left:4px;&quot;&gt;+ method(): Type&lt;/p&gt;" style="verticalAlign=top;align=left;overflow=fill;fontSize=12;fontFamily=Helvetica;html=1;whiteSpace=wrap;" vertex="1" parent="1">
          <mxGeometry x="1000" y="2570" width="160" height="90" as="geometry" />
        </mxCell>
        <mxCell id="YzwFTOW2Nqn99mvJIHWq-21" value="&lt;p style=&quot;margin:0px;margin-top:4px;text-align:center;&quot;&gt;&lt;b&gt;CartaoCliente&lt;/b&gt;&lt;/p&gt;&lt;hr size=&quot;1&quot;&gt;&lt;p style=&quot;margin:0px;margin-left:4px;&quot;&gt;- valor: float&lt;/p&gt;&lt;hr size=&quot;1&quot;&gt;&lt;p style=&quot;margin:0px;margin-left:4px;&quot;&gt;+ method(): Type&lt;/p&gt;" style="verticalAlign=top;align=left;overflow=fill;fontSize=12;fontFamily=Helvetica;html=1;whiteSpace=wrap;" vertex="1" parent="1">
          <mxGeometry x="1000" y="2670" width="160" height="90" as="geometry" />
        </mxCell>
        <mxCell id="YzwFTOW2Nqn99mvJIHWq-22" value="" style="endArrow=block;endSize=16;endFill=0;html=1;rounded=0;edgeStyle=orthogonalEdgeStyle;exitX=0;exitY=0.5;exitDx=0;exitDy=0;entryX=0.425;entryY=1.011;entryDx=0;entryDy=0;entryPerimeter=0;" edge="1" parent="1" source="YzwFTOW2Nqn99mvJIHWq-20" target="YzwFTOW2Nqn99mvJIHWq-4">
          <mxGeometry width="160" relative="1" as="geometry">
            <mxPoint x="1020" y="2603" as="sourcePoint" />
            <mxPoint x="770" y="2330" as="targetPoint" />
          </mxGeometry>
        </mxCell>
        <mxCell id="YzwFTOW2Nqn99mvJIHWq-23" value="" style="endArrow=block;endSize=16;endFill=0;html=1;rounded=0;edgeStyle=orthogonalEdgeStyle;exitX=-0.012;exitY=0.333;exitDx=0;exitDy=0;entryX=0.181;entryY=1.033;entryDx=0;entryDy=0;entryPerimeter=0;exitPerimeter=0;" edge="1" parent="1" source="YzwFTOW2Nqn99mvJIHWq-21" target="YzwFTOW2Nqn99mvJIHWq-4">
          <mxGeometry width="160" relative="1" as="geometry">
            <mxPoint x="1020" y="2745" as="sourcePoint" />
            <mxPoint x="798" y="2331" as="targetPoint" />
          </mxGeometry>
        </mxCell>
        <mxCell id="YzwFTOW2Nqn99mvJIHWq-24" value="0..1" style="text;html=1;align=center;verticalAlign=middle;resizable=0;points=[];autosize=1;strokeColor=none;fillColor=none;" vertex="1" parent="1">
          <mxGeometry x="640" y="2380" width="40" height="30" as="geometry" />
        </mxCell>
        <mxCell id="YzwFTOW2Nqn99mvJIHWq-25" value="0..1" style="text;html=1;align=center;verticalAlign=middle;resizable=0;points=[];autosize=1;strokeColor=none;fillColor=none;" vertex="1" parent="1">
          <mxGeometry x="450" y="2430" width="40" height="30" as="geometry" />
        </mxCell>
        <mxCell id="YzwFTOW2Nqn99mvJIHWq-26" value="0..1" style="text;html=1;align=center;verticalAlign=middle;resizable=0;points=[];autosize=1;strokeColor=none;fillColor=none;" vertex="1" parent="1">
          <mxGeometry x="450" y="2310" width="40" height="30" as="geometry" />
        </mxCell>
        <mxCell id="YzwFTOW2Nqn99mvJIHWq-27" value="" style="endArrow=block;endSize=16;endFill=0;html=1;rounded=0;edgeStyle=orthogonalEdgeStyle;exitX=0;exitY=0.5;exitDx=0;exitDy=0;entryX=1.013;entryY=0.867;entryDx=0;entryDy=0;entryPerimeter=0;" edge="1" parent="1" source="YzwFTOW2Nqn99mvJIHWq-9" target="YzwFTOW2Nqn99mvJIHWq-4">
          <mxGeometry width="160" relative="1" as="geometry">
            <mxPoint x="1010" y="2563" as="sourcePoint" />
            <mxPoint x="830" y="2420" as="targetPoint" />
          </mxGeometry>
        </mxCell>
        <mxCell id="YzwFTOW2Nqn99mvJIHWq-28" value="" style="endArrow=none;html=1;edgeStyle=orthogonalEdgeStyle;rounded=0;exitX=0.5;exitY=0;exitDx=0;exitDy=0;dashed=1;dashPattern=1 4;" edge="1" parent="1" source="YzwFTOW2Nqn99mvJIHWq-7">
          <mxGeometry relative="1" as="geometry">
            <mxPoint x="500" y="2160" as="sourcePoint" />
            <mxPoint x="490" y="2120" as="targetPoint" />
          </mxGeometry>
        </mxCell>
        <mxCell id="YzwFTOW2Nqn99mvJIHWq-29" value="compra" style="text;html=1;align=center;verticalAlign=middle;resizable=0;points=[];autosize=1;strokeColor=none;fillColor=none;" vertex="1" parent="1">
          <mxGeometry x="460" y="2090" width="60" height="30" as="geometry" />
        </mxCell>
        <mxCell id="YzwFTOW2Nqn99mvJIHWq-30" value="&lt;p style=&quot;margin:0px;margin-top:4px;text-align:center;&quot;&gt;&lt;b&gt;Livros&lt;/b&gt;&lt;/p&gt;&lt;hr size=&quot;1&quot;&gt;&lt;p style=&quot;margin:0px;margin-left:4px;&quot;&gt;&lt;span style=&quot;background-color: initial;&quot;&gt;- autor: string&lt;/span&gt;&lt;br&gt;&lt;/p&gt;&lt;p style=&quot;margin:0px;margin-left:4px;&quot;&gt;- editora: string&lt;/p&gt;&lt;p style=&quot;margin:0px;margin-left:4px;&quot;&gt;- idioma: string&lt;/p&gt;&lt;p style=&quot;margin:0px;margin-left:4px;&quot;&gt;- valor: float&lt;/p&gt;&lt;hr size=&quot;1&quot;&gt;&lt;p style=&quot;margin:0px;margin-left:4px;&quot;&gt;+ method(): Type&lt;/p&gt;" style="verticalAlign=top;align=left;overflow=fill;fontSize=12;fontFamily=Helvetica;html=1;whiteSpace=wrap;" vertex="1" parent="1">
          <mxGeometry x="820" y="1780" width="160" height="120" as="geometry" />
        </mxCell>
        <mxCell id="YzwFTOW2Nqn99mvJIHWq-31" value="&lt;p style=&quot;margin:0px;margin-top:4px;text-align:center;&quot;&gt;&lt;b&gt;Ebook&lt;/b&gt;&lt;/p&gt;&lt;hr size=&quot;1&quot;&gt;&lt;p style=&quot;margin:0px;margin-left:4px;&quot;&gt;- link: string&lt;/p&gt;&lt;p style=&quot;margin:0px;margin-left:4px;&quot;&gt;- compatabilidade: string&lt;/p&gt;&lt;p style=&quot;margin:0px;margin-left:4px;&quot;&gt;- tamanhoFicheiro: float&lt;/p&gt;&lt;hr size=&quot;1&quot;&gt;&lt;p style=&quot;margin:0px;margin-left:4px;&quot;&gt;+ method(): Type&lt;/p&gt;" style="verticalAlign=top;align=left;overflow=fill;fontSize=12;fontFamily=Helvetica;html=1;whiteSpace=wrap;" vertex="1" parent="1">
          <mxGeometry x="1020" y="1540" width="160" height="120" as="geometry" />
        </mxCell>
        <mxCell id="YzwFTOW2Nqn99mvJIHWq-32" value="&lt;p style=&quot;margin:0px;margin-top:4px;text-align:center;&quot;&gt;&lt;b&gt;Audiolivro&lt;/b&gt;&lt;/p&gt;&lt;hr size=&quot;1&quot;&gt;&lt;p style=&quot;margin:0px;margin-left:4px;&quot;&gt;- link: string&lt;/p&gt;&lt;p style=&quot;margin:0px;margin-left:4px;&quot;&gt;- compatabilidade: string&lt;/p&gt;&lt;p style=&quot;margin:0px;margin-left:4px;&quot;&gt;-&amp;nbsp; duracao: date&lt;/p&gt;&lt;hr size=&quot;1&quot;&gt;&lt;p style=&quot;margin:0px;margin-left:4px;&quot;&gt;+ method(): Type&lt;/p&gt;" style="verticalAlign=top;align=left;overflow=fill;fontSize=12;fontFamily=Helvetica;html=1;whiteSpace=wrap;" vertex="1" parent="1">
          <mxGeometry x="750" y="1540" width="160" height="120" as="geometry" />
        </mxCell>
        <mxCell id="YzwFTOW2Nqn99mvJIHWq-33" value="&lt;p style=&quot;margin:0px;margin-top:4px;text-align:center;&quot;&gt;&lt;b&gt;Bilheteira&lt;/b&gt;&lt;/p&gt;&lt;hr size=&quot;1&quot;&gt;&lt;p style=&quot;margin:0px;margin-left:4px;&quot;&gt;- organizadora: string&lt;/p&gt;&lt;p style=&quot;margin:0px;margin-left:4px;&quot;&gt;- nomeEvento: string&lt;/p&gt;&lt;p style=&quot;margin:0px;margin-left:4px;&quot;&gt;- tipoEvento: string&lt;/p&gt;&lt;p style=&quot;margin:0px;margin-left:4px;&quot;&gt;- localizacao: string&lt;/p&gt;&lt;p style=&quot;margin:0px;margin-left:4px;&quot;&gt;- horario: date&lt;/p&gt;&lt;hr size=&quot;1&quot;&gt;&lt;p style=&quot;margin:0px;margin-left:4px;&quot;&gt;+ method(): Type&lt;/p&gt;" style="verticalAlign=top;align=left;overflow=fill;fontSize=12;fontFamily=Helvetica;html=1;whiteSpace=wrap;" vertex="1" parent="1">
          <mxGeometry x="570" y="1770" width="160" height="140" as="geometry" />
        </mxCell>
        <mxCell id="YzwFTOW2Nqn99mvJIHWq-34" value="&lt;p style=&quot;margin:0px;margin-top:4px;text-align:center;&quot;&gt;&lt;b&gt;Musica&lt;/b&gt;&lt;/p&gt;&lt;hr size=&quot;1&quot;&gt;&lt;p style=&quot;margin:0px;margin-left:4px;&quot;&gt;- nome: string&lt;/p&gt;&lt;p style=&quot;margin:0px;margin-left:4px;&quot;&gt;- autor: string&lt;/p&gt;&lt;p style=&quot;margin:0px;margin-left:4px;&quot;&gt;- editora: string&lt;/p&gt;&lt;p style=&quot;margin:0px;margin-left:4px;&quot;&gt;- idioma: string&lt;/p&gt;&lt;hr size=&quot;1&quot;&gt;&lt;p style=&quot;margin:0px;margin-left:4px;&quot;&gt;+ method(): Type&lt;/p&gt;" style="verticalAlign=top;align=left;overflow=fill;fontSize=12;fontFamily=Helvetica;html=1;whiteSpace=wrap;" vertex="1" parent="1">
          <mxGeometry x="1050" y="1840" width="160" height="120" as="geometry" />
        </mxCell>
        <mxCell id="YzwFTOW2Nqn99mvJIHWq-35" value="&lt;p style=&quot;margin:0px;margin-top:4px;text-align:center;&quot;&gt;&lt;b&gt;Papelaria&lt;/b&gt;&lt;/p&gt;&lt;hr size=&quot;1&quot;&gt;&lt;p style=&quot;margin:0px;margin-left:4px;&quot;&gt;&lt;span style=&quot;background-color: initial;&quot;&gt;- marca: string&lt;/span&gt;&lt;/p&gt;&lt;p style=&quot;margin:0px;margin-left:4px;&quot;&gt;&lt;br&gt;&lt;/p&gt;&lt;hr size=&quot;1&quot;&gt;&lt;p style=&quot;margin:0px;margin-left:4px;&quot;&gt;+ method(): Type&lt;/p&gt;" style="verticalAlign=top;align=left;overflow=fill;fontSize=12;fontFamily=Helvetica;html=1;whiteSpace=wrap;" vertex="1" parent="1">
          <mxGeometry x="1050" y="1990" width="160" height="120" as="geometry" />
        </mxCell>
        <mxCell id="YzwFTOW2Nqn99mvJIHWq-36" value="&lt;p style=&quot;margin:0px;margin-top:4px;text-align:center;&quot;&gt;&lt;b&gt;JogosBrinquedos&lt;/b&gt;&lt;/p&gt;&lt;hr size=&quot;1&quot;&gt;&lt;p style=&quot;margin:0px;margin-left:4px;&quot;&gt;&lt;span style=&quot;background-color: initial;&quot;&gt;- marca: string&lt;/span&gt;&lt;/p&gt;&lt;p style=&quot;margin:0px;margin-left:4px;&quot;&gt;&lt;span style=&quot;background-color: initial;&quot;&gt;- tipoBrinquedo: string&lt;/span&gt;&lt;/p&gt;&lt;p style=&quot;margin:0px;margin-left:4px;&quot;&gt;&lt;br&gt;&lt;/p&gt;&lt;hr size=&quot;1&quot;&gt;&lt;p style=&quot;margin:0px;margin-left:4px;&quot;&gt;+ method(): Type&lt;/p&gt;" style="verticalAlign=top;align=left;overflow=fill;fontSize=12;fontFamily=Helvetica;html=1;whiteSpace=wrap;" vertex="1" parent="1">
          <mxGeometry x="360" y="1770" width="160" height="120" as="geometry" />
        </mxCell>
        <mxCell id="YzwFTOW2Nqn99mvJIHWq-37" value="" style="endArrow=block;endSize=16;endFill=0;html=1;rounded=0;edgeStyle=orthogonalEdgeStyle;exitX=0.438;exitY=1;exitDx=0;exitDy=0;exitPerimeter=0;" edge="1" parent="1" source="YzwFTOW2Nqn99mvJIHWq-32">
          <mxGeometry width="160" relative="1" as="geometry">
            <mxPoint x="849.5" y="1100" as="sourcePoint" />
            <mxPoint x="870" y="1780" as="targetPoint" />
          </mxGeometry>
        </mxCell>
        <mxCell id="YzwFTOW2Nqn99mvJIHWq-38" value="" style="endArrow=block;endSize=16;endFill=0;html=1;rounded=0;edgeStyle=orthogonalEdgeStyle;exitX=0.5;exitY=1;exitDx=0;exitDy=0;entryX=0.75;entryY=0;entryDx=0;entryDy=0;" edge="1" parent="1" source="YzwFTOW2Nqn99mvJIHWq-31" target="YzwFTOW2Nqn99mvJIHWq-30">
          <mxGeometry width="160" relative="1" as="geometry">
            <mxPoint x="830" y="1670" as="sourcePoint" />
            <mxPoint x="880" y="1790" as="targetPoint" />
          </mxGeometry>
        </mxCell>
        <mxCell id="YzwFTOW2Nqn99mvJIHWq-39" value="" style="endArrow=block;endSize=16;endFill=0;html=1;rounded=0;edgeStyle=orthogonalEdgeStyle;exitX=-0.006;exitY=0.925;exitDx=0;exitDy=0;entryX=1;entryY=0.25;entryDx=0;entryDy=0;exitPerimeter=0;" edge="1" parent="1" source="YzwFTOW2Nqn99mvJIHWq-34" target="YzwFTOW2Nqn99mvJIHWq-2">
          <mxGeometry width="160" relative="1" as="geometry">
            <mxPoint x="1110" y="1670" as="sourcePoint" />
            <mxPoint x="950" y="1790" as="targetPoint" />
          </mxGeometry>
        </mxCell>
        <mxCell id="YzwFTOW2Nqn99mvJIHWq-40" value="" style="endArrow=block;endSize=16;endFill=0;html=1;rounded=0;edgeStyle=orthogonalEdgeStyle;entryX=1;entryY=0;entryDx=0;entryDy=0;" edge="1" parent="1" source="YzwFTOW2Nqn99mvJIHWq-30" target="YzwFTOW2Nqn99mvJIHWq-2">
          <mxGeometry width="160" relative="1" as="geometry">
            <mxPoint x="1059" y="1961" as="sourcePoint" />
            <mxPoint x="770" y="2130" as="targetPoint" />
          </mxGeometry>
        </mxCell>
        <mxCell id="YzwFTOW2Nqn99mvJIHWq-41" value="" style="endArrow=block;endSize=16;endFill=0;html=1;rounded=0;edgeStyle=orthogonalEdgeStyle;exitX=0.75;exitY=1;exitDx=0;exitDy=0;" edge="1" parent="1" source="YzwFTOW2Nqn99mvJIHWq-33" target="YzwFTOW2Nqn99mvJIHWq-2">
          <mxGeometry width="160" relative="1" as="geometry">
            <mxPoint x="830" y="1850" as="sourcePoint" />
            <mxPoint x="770" y="2100" as="targetPoint" />
          </mxGeometry>
        </mxCell>
        <mxCell id="YzwFTOW2Nqn99mvJIHWq-42" value="" style="endArrow=block;endSize=16;endFill=0;html=1;rounded=0;edgeStyle=orthogonalEdgeStyle;exitX=0.625;exitY=1;exitDx=0;exitDy=0;exitPerimeter=0;entryX=0.25;entryY=0;entryDx=0;entryDy=0;" edge="1" parent="1" source="YzwFTOW2Nqn99mvJIHWq-36" target="YzwFTOW2Nqn99mvJIHWq-2">
          <mxGeometry width="160" relative="1" as="geometry">
            <mxPoint x="700" y="1920" as="sourcePoint" />
            <mxPoint x="690" y="2070" as="targetPoint" />
          </mxGeometry>
        </mxCell>
        <mxCell id="YzwFTOW2Nqn99mvJIHWq-43" value="" style="endArrow=block;endSize=16;endFill=0;html=1;rounded=0;edgeStyle=orthogonalEdgeStyle;exitX=-0.012;exitY=0.892;exitDx=0;exitDy=0;entryX=1;entryY=0.5;entryDx=0;entryDy=0;exitPerimeter=0;" edge="1" parent="1" source="YzwFTOW2Nqn99mvJIHWq-35" target="YzwFTOW2Nqn99mvJIHWq-2">
          <mxGeometry width="160" relative="1" as="geometry">
            <mxPoint x="1059" y="1961" as="sourcePoint" />
            <mxPoint x="770" y="2100" as="targetPoint" />
          </mxGeometry>
        </mxCell>
      </root>
    </mxGraphModel>
  </diagram>
</mxfile>
